<svg width="703" height="703" viewBox="0 0 703 703" fill="none" xmlns="http://www.w3.org/2000/svg">
<rect x="310.2" y="237.047" width="82.6432" height="229.04" rx="17" fill="#FA5353"/>
<rect x="466.041" y="310.245" width="82.6432" height="229.04" rx="17" transform="rotate(90 466.041 310.245)" fill="#FA5353"/>
<path d="M292.124 198.27C325.81 185.217 362.857 183.624 397.54 193.736C432.222 203.849 462.608 225.103 484 254.215C505.393 283.326 516.601 318.673 515.892 354.793C515.183 390.912 502.597 425.793 480.079 454.042C457.56 482.292 426.364 502.338 391.312 511.082C356.259 519.825 319.303 516.78 286.155 502.416C253.006 488.052 225.513 463.169 207.923 431.614C190.333 400.059 183.626 363.589 188.84 327.841" stroke="#262626" stroke-width="12" stroke-linecap="round" stroke-linejoin="round"/>
<path d="M157.559 288.127C170.135 246.222 198.694 208.744 238.313 182.548" stroke="#262626" stroke-width="13" stroke-linecap="round" stroke-linejoin="round"/>
<path d="M127.468 259.454C140.132 222.981 164.816 190.136 198.224 165.562" stroke="#262626" stroke-width="13" stroke-linecap="round" stroke-linejoin="round"/>
<path d="M92.0112 238.781C104.675 202.309 129.359 169.463 162.767 144.889" stroke="#262626" stroke-width="13" stroke-linecap="round" stroke-linejoin="round"/>
</svg>
